<svg width="200" height="200" viewBox="0 0 1000 1000" xmlns="http://www.w3.org/2000/svg">
  <!-- Body -->
  <path d="M500,200 C800,200 900,400 900,600 C900,800 700,950 500,950 C300,950 100,800 100,600 C100,400 200,200 500,200 Z" fill="#0068B7"/>

  <!-- Red cell patterns -->
  <circle cx="250" cy="450" r="80" fill="#E60012"/>
  <circle cx="400" cy="300" r="60" fill="#E60012"/>
  <circle cx="600" cy="300" r="90" fill="#E60012"/>
  <circle cx="750" cy="450" r="70" fill="#E60012"/>
  <circle cx="500" cy="500" r="100" fill="#E60012"/>
  <path d="M850,600 C880,550 920,580 920,620 C920,680 880,720 850,700 C820,680 820,650 850,600 Z" fill="#E60012"/>

  <!-- Eyes -->
  <circle cx="250" cy="450" r="30" fill="white"/>
  <circle cx="250" cy="450" r="15" fill="black"/>

  <circle cx="400" cy="300" r="25" fill="white"/>
  <circle cx="400" cy="300" r="12" fill="black"/>

  <circle cx="600" cy="300" r="35" fill="white"/>
  <circle cx="600" cy="300" r="18" fill="black"/>

  <circle cx="750" cy="450" r="28" fill="white"/>
  <circle cx="750" cy="450" r="14" fill="black"/>

  <circle cx="500" cy="500" r="40" fill="white"/>
  <circle cx="500" cy="500" r="20" fill="black"/>
</svg>